<svg width="240" height="213" viewBox="0 0 240 213" fill="none" xmlns="http://www.w3.org/2000/svg">
<g clip-path="url(#clip0_1661_40263)">
<path d="M120 212.182C178.588 212.182 226.083 164.687 226.083 106.099C226.083 47.5102 178.588 0.0148926 120 0.0148926C61.4113 0.0148926 13.916 47.5102 13.916 106.099C13.916 164.687 61.4113 212.182 120 212.182Z" fill="white"/>
<path opacity="0.1" d="M120 212.182C178.588 212.182 226.083 164.687 226.083 106.099C226.083 47.5102 178.588 0.0148926 120 0.0148926C61.4113 0.0148926 13.916 47.5102 13.916 106.099C13.916 164.687 61.4113 212.182 120 212.182Z" fill="#8554EA"/>
<path d="M51.0549 142.13L0.322266 141.976L0.531005 73.0569L35.6114 73.1632L51.2161 88.8629L51.0549 142.13Z" fill="white"/>
<path opacity="0.3" d="M35.612 73.1631L35.5645 88.8153L51.2166 88.8628L35.612 73.1631Z" fill="#8554EA"/>
<path d="M51.5362 88.8434C51.5343 88.8151 51.5288 88.7872 51.5197 88.7603C51.5162 88.75 51.5136 88.74 51.5091 88.7296C51.494 88.6945 51.4726 88.6624 51.4461 88.635L35.8414 72.9353C35.8139 72.9083 35.7819 72.8864 35.7467 72.8707C35.7369 72.8665 35.7269 72.8628 35.7167 72.8597C35.6896 72.8502 35.6613 72.8446 35.6326 72.8429C35.6259 72.8429 35.6197 72.8387 35.6129 72.8387L0.532834 72.7336C0.447135 72.7336 0.364947 72.7677 0.30435 72.8283C0.243752 72.8889 0.209708 72.9711 0.209708 73.0568L0 141.975C0 142.061 0.0340435 142.143 0.0946412 142.204C0.155239 142.264 0.237427 142.298 0.323125 142.298L51.0538 142.453C51.1395 142.453 51.2217 142.419 51.2823 142.358C51.3429 142.298 51.3769 142.216 51.3769 142.13L51.5385 88.8628C51.5401 88.8566 51.5365 88.8505 51.5362 88.8434ZM35.9315 73.9444L43.1372 81.1911L50.4379 88.5364L35.8889 88.4921L35.9315 73.9444ZM0.646251 141.654L0.853051 73.3809L35.2869 73.4852L35.2407 88.8143C35.2407 88.9 35.2747 88.9822 35.3353 89.0428C35.3959 89.1034 35.4781 89.1374 35.5638 89.1374L50.8929 89.184L50.7336 141.805L0.646251 141.654Z" fill="#262626"/>
<path d="M154.481 139.372L85.2988 139.162L85.5835 45.1794L133.421 45.3245L154.701 66.7335L154.481 139.372Z" fill="white"/>
<path opacity="0.3" d="M133.422 45.3245L133.357 66.6688L154.702 66.7335L133.422 45.3245Z" fill="#8554EA"/>
<path d="M155.02 66.7141C155.018 66.6859 155.013 66.6581 155.004 66.6314C155 66.6207 154.997 66.6107 154.993 66.599C154.978 66.564 154.957 66.5319 154.93 66.5044L133.651 45.0954C133.623 45.0684 133.591 45.0465 133.556 45.0308C133.546 45.0262 133.536 45.0236 133.526 45.0201C133.499 45.0107 133.47 45.005 133.442 45.003C133.435 45.003 133.429 44.9991 133.422 44.9991L85.5844 44.854C85.4987 44.854 85.4165 44.888 85.3559 44.9486C85.2953 45.0092 85.2612 45.0914 85.2612 45.1771L84.9766 139.16C84.9766 139.246 85.0106 139.328 85.0712 139.389C85.1318 139.449 85.214 139.483 85.2997 139.483L154.481 139.693C154.567 139.693 154.649 139.659 154.709 139.598C154.77 139.538 154.804 139.455 154.804 139.37L155.024 66.7312C155.024 66.7273 155.02 66.7212 155.02 66.7141ZM133.741 46.1055L153.921 66.4081L133.68 66.3467L133.741 46.1055ZM85.6228 138.84L85.9055 45.5035L133.097 45.6466L133.032 66.6679C133.032 66.7536 133.066 66.8358 133.127 66.8964C133.188 66.957 133.27 66.991 133.356 66.991L154.377 67.0556L154.159 139.048L85.6228 138.84Z" fill="#262626"/>
<path d="M239.516 142.13L188.783 141.976L188.992 73.0569L224.072 73.1632L239.677 88.8629L239.516 142.13Z" fill="white"/>
<path opacity="0.3" d="M224.073 73.1631L224.025 88.8153L239.678 88.8628L224.073 73.1631Z" fill="#8554EA"/>
<path d="M239.996 88.8435C239.995 88.8152 239.989 88.7872 239.98 88.7604C239.976 88.7501 239.974 88.74 239.969 88.7297C239.954 88.6947 239.933 88.6626 239.906 88.635L224.301 72.9353C224.274 72.9083 224.242 72.8864 224.207 72.8707C224.197 72.8662 224.187 72.8633 224.177 72.8597C224.15 72.8503 224.121 72.8447 224.093 72.8429C224.086 72.8429 224.08 72.8387 224.073 72.8387L188.993 72.7324C188.907 72.7324 188.825 72.7665 188.764 72.8271C188.704 72.8877 188.67 72.9698 188.67 73.0555L188.461 141.975C188.461 142.061 188.495 142.143 188.556 142.203C188.616 142.264 188.698 142.298 188.784 142.298L239.517 142.452C239.602 142.452 239.685 142.418 239.745 142.357C239.806 142.297 239.84 142.214 239.84 142.129L240.001 88.8615C240 88.8567 239.997 88.8506 239.996 88.8435ZM224.393 73.9445L231.596 81.1912L238.898 88.5365L224.349 88.4922L224.393 73.9445ZM189.108 141.654L189.314 73.3809L223.748 73.4853L223.702 88.8144C223.702 88.9001 223.736 88.9823 223.797 89.0429C223.857 89.1035 223.939 89.1375 224.025 89.1375L239.354 89.184L239.195 141.805L189.108 141.654Z" fill="#262626"/>
<path d="M102.72 99.9485C105.395 99.9485 107.563 97.7802 107.563 95.1054C107.563 92.4307 105.395 90.2625 102.72 90.2625C100.045 90.2625 97.877 92.4307 97.877 95.1054C97.877 97.7802 100.045 99.9485 102.72 99.9485Z" fill="#292A2E"/>
<path d="M135.929 99.9485C138.604 99.9485 140.772 97.7802 140.772 95.1054C140.772 92.4307 138.604 90.2625 135.929 90.2625C133.254 90.2625 131.086 92.4307 131.086 95.1054C131.086 97.7802 133.254 99.9485 135.929 99.9485Z" fill="#292A2E"/>
<path d="M125.817 108.499H112.831C112.745 108.499 112.663 108.465 112.602 108.404C112.542 108.344 112.508 108.262 112.508 108.176C112.508 108.09 112.542 108.008 112.602 107.947C112.663 107.887 112.745 107.853 112.831 107.853H125.817C125.902 107.853 125.985 107.887 126.045 107.947C126.106 108.008 126.14 108.09 126.14 108.176C126.14 108.262 126.106 108.344 126.045 108.404C125.985 108.465 125.902 108.499 125.817 108.499Z" fill="#262626"/>
<path d="M97.7245 108.959C100.11 108.959 102.045 107.941 102.045 106.685C102.045 105.429 100.11 104.411 97.7245 104.411C95.3385 104.411 93.4043 105.429 93.4043 106.685C93.4043 107.941 95.3385 108.959 97.7245 108.959Z" fill="white"/>
<path d="M140.924 108.959C143.31 108.959 145.244 107.941 145.244 106.685C145.244 105.429 143.31 104.411 140.924 104.411C138.538 104.411 136.604 105.429 136.604 106.685C136.604 107.941 138.538 108.959 140.924 108.959Z" fill="white"/>
<g opacity="0.4">
<path d="M97.7245 108.959C100.11 108.959 102.045 107.941 102.045 106.685C102.045 105.429 100.11 104.411 97.7245 104.411C95.3385 104.411 93.4043 105.429 93.4043 106.685C93.4043 107.941 95.3385 108.959 97.7245 108.959Z" fill="#8554EA"/>
<path d="M140.924 108.959C143.31 108.959 145.244 107.941 145.244 106.685C145.244 105.429 143.31 104.411 140.924 104.411C138.538 104.411 136.604 105.429 136.604 106.685C136.604 107.941 138.538 108.959 140.924 108.959Z" fill="#8554EA"/>
</g>
<path d="M154.806 67.5037C146.56 58.036 134.89 52.2316 122.364 51.3673C109.839 50.503 97.4826 54.6496 88.014 62.895C72.1951 76.6721 67.334 99.5772 76.195 118.602C77.9743 122.414 80.2556 125.971 82.9784 129.178L83.56 129.867L40.1992 175.884C39.4063 176.737 38.9831 177.87 39.022 179.035C39.0609 180.199 39.5587 181.301 40.4068 182.1C41.2549 182.899 42.3846 183.331 43.5494 183.3C44.7142 183.27 45.8198 182.78 46.6249 181.937L89.975 135.928L90.6991 136.47C100.054 143.487 111.675 146.793 123.323 145.752C134.97 144.711 145.82 139.395 153.782 130.83C161.744 122.265 166.254 111.056 166.443 99.3636C166.633 87.671 162.488 76.3221 154.807 67.5037H154.806ZM157.524 101.247C156.853 110.969 152.522 120.075 145.403 126.73C138.284 133.385 128.907 137.095 119.162 137.11C118.262 137.11 117.359 137.078 116.454 137.013C110.128 136.584 104.006 134.6 98.6305 131.238C93.2551 127.876 88.7924 123.239 85.6382 117.739C82.4841 112.239 80.7358 106.046 80.5486 99.7086C80.3613 93.3711 81.7408 87.0853 84.5648 81.4087C87.3887 75.7321 91.5698 70.84 96.7373 67.1663C101.905 63.4927 107.899 61.1509 114.188 60.3488C120.478 59.5466 126.868 60.3089 132.792 62.5679C138.716 64.8269 143.991 68.5129 148.15 73.299C151.481 77.1072 154.025 81.5378 155.634 86.3348C157.243 91.1319 157.886 96.2003 157.524 101.247Z" fill="#8554EA"/>
</g>
<defs>
<clipPath id="clip0_1661_40263">
<rect width="240" height="212.197" fill="white"/>
</clipPath>
</defs>
</svg>
