<svg width="20" height="20" viewBox="0 0 20 20" fill="none" xmlns="http://www.w3.org/2000/svg">
<path d="M19 4.00065H14V2.33065C13.9765 1.69047 13.7002 1.0857 13.2316 0.648938C12.7629 0.212172 12.1402 -0.0209609 11.5 0.000646017H8.5C7.85975 -0.0209609 7.23706 0.212172 6.76843 0.648938C6.2998 1.0857 6.02346 1.69047 6 2.33065V4.00065H1C0.734784 4.00065 0.48043 4.106 0.292893 4.29354C0.105357 4.48108 0 4.73543 0 5.00065C0 5.26586 0.105357 5.52022 0.292893 5.70775C0.48043 5.89529 0.734784 6.00065 1 6.00065H2V17.0006C2 17.7963 2.31607 18.5594 2.87868 19.122C3.44129 19.6846 4.20435 20.0006 5 20.0006H15C15.7956 20.0006 16.5587 19.6846 17.1213 19.122C17.6839 18.5594 18 17.7963 18 17.0006V6.00065H19C19.2652 6.00065 19.5196 5.89529 19.7071 5.70775C19.8946 5.52022 20 5.26586 20 5.00065C20 4.73543 19.8946 4.48108 19.7071 4.29354C19.5196 4.106 19.2652 4.00065 19 4.00065ZM8 2.33065C8 2.17065 8.21 2.00065 8.5 2.00065H11.5C11.79 2.00065 12 2.17065 12 2.33065V4.00065H8V2.33065ZM16 17.0006C16 17.2659 15.8946 17.5202 15.7071 17.7078C15.5196 17.8953 15.2652 18.0006 15 18.0006H5C4.73478 18.0006 4.48043 17.8953 4.29289 17.7078C4.10536 17.5202 4 17.2659 4 17.0006V6.00065H16V17.0006Z" fill="#979798"/>
<path d="M7 15.0006C7.26522 15.0006 7.51957 14.8953 7.70711 14.7077C7.89464 14.5202 8 14.2658 8 14.0006V10.0006C8 9.73539 7.89464 9.48104 7.70711 9.2935C7.51957 9.10597 7.26522 9.00061 7 9.00061C6.73478 9.00061 6.48043 9.10597 6.29289 9.2935C6.10536 9.48104 6 9.73539 6 10.0006V14.0006C6 14.2658 6.10536 14.5202 6.29289 14.7077C6.48043 14.8953 6.73478 15.0006 7 15.0006Z" fill="#979798"/>
<path d="M13 15.0006C13.2652 15.0006 13.5196 14.8953 13.7071 14.7077C13.8946 14.5202 14 14.2658 14 14.0006V10.0006C14 9.73539 13.8946 9.48104 13.7071 9.2935C13.5196 9.10597 13.2652 9.00061 13 9.00061C12.7348 9.00061 12.4804 9.10597 12.2929 9.2935C12.1054 9.48104 12 9.73539 12 10.0006V14.0006C12 14.2658 12.1054 14.5202 12.2929 14.7077C12.4804 14.8953 12.7348 15.0006 13 15.0006Z" fill="#979798"/>
</svg>
