<svg xmlns="http://www.w3.org/2000/svg" width="25" height="25" viewBox="0 0 25 25" fill="none">
    <g clip-path="url(#clip0_2683_28743)">
        <path d="M15.2361 2.91162V12.8231C15.2361 13.9134 14.3465 14.8054 13.2591 14.8054H2.38513V8.48189C3.10677 9.34419 4.21393 9.87941 5.43972 9.84967C6.43814 9.82985 7.33771 9.4433 8.00992 8.79905C8.31637 8.54136 8.57339 8.21428 8.77109 7.85746C9.12697 7.25286 9.32468 6.53923 9.30491 5.79587C9.27525 4.63622 8.76121 3.61534 7.96049 2.91162H15.2361Z" stroke="#2ED573" stroke-width="1.5" stroke-linecap="round" stroke-linejoin="round"/>
        <path d="M22.1559 14.8054V17.7788C22.1559 19.4241 20.8313 20.7523 19.1903 20.7523H18.2018C18.2018 19.662 17.3121 18.77 16.2247 18.77C15.1373 18.77 14.2476 19.662 14.2476 20.7523H10.2934C10.2934 19.662 9.40376 18.77 8.31637 18.77C7.22897 18.77 6.33929 19.662 6.33929 20.7523H5.35075C3.70977 20.7523 2.38513 19.4241 2.38513 17.7788V14.8054H13.2591C14.3465 14.8054 15.2361 13.9133 15.2361 12.8231V5.88501H17.0551C17.7668 5.88501 18.4192 6.27156 18.7751 6.88607L20.4655 9.84961H19.1903C18.6466 9.84961 18.2018 10.2956 18.2018 10.8408V13.8142C18.2018 14.3593 18.6466 14.8054 19.1903 14.8054H22.1559Z" stroke="#2ED573" stroke-width="1.5" stroke-linecap="round" stroke-linejoin="round"/>
        <path d="M8.31637 22.7346C8.84073 22.7346 9.3436 22.5257 9.71438 22.154C10.0852 21.7822 10.2935 21.278 10.2935 20.7523C10.2935 20.2265 10.0852 19.7223 9.71438 19.3506C9.3436 18.9788 8.84073 18.77 8.31637 18.77C7.79202 18.77 7.28914 18.9788 6.91837 19.3506C6.54759 19.7223 6.33929 20.2265 6.33929 20.7523C6.33929 21.278 6.54759 21.7822 6.91837 22.154C7.28914 22.5257 7.79202 22.7346 8.31637 22.7346ZM16.2247 22.7346C16.749 22.7346 17.2519 22.5257 17.6227 22.154C17.9935 21.7822 18.2018 21.278 18.2018 20.7523C18.2018 20.2265 17.9935 19.7223 17.6227 19.3506C17.2519 18.9788 16.749 18.77 16.2247 18.77C15.7003 18.77 15.1975 18.9788 14.8267 19.3506C14.4559 19.7223 14.2476 20.2265 14.2476 20.7523C14.2476 21.278 14.4559 21.7822 14.8267 22.154C15.1975 22.5257 15.7003 22.7346 16.2247 22.7346ZM22.1559 12.8231V14.8054H19.1903C18.6466 14.8054 18.2018 14.3593 18.2018 13.8142V10.8408C18.2018 10.2956 18.6466 9.84961 19.1903 9.84961H20.4655L22.1559 12.8231Z" stroke="#2ED573" stroke-width="1.5" stroke-linecap="round" stroke-linejoin="round"/>
        <path d="M9.30496 5.79582C9.32473 6.53918 9.12703 7.25281 8.77115 7.85741C8.57344 8.21423 8.31642 8.54131 8.00998 8.79901C7.33777 9.44325 6.4382 9.8298 5.43977 9.84963C4.21399 9.87936 3.10682 9.34414 2.38519 8.48184C2.24679 8.33317 2.12817 8.16467 2.01943 7.99617C1.6339 7.4114 1.41642 6.71759 1.39665 5.97423C1.38199 5.37916 1.5015 4.78845 1.74626 4.24614C1.99103 3.70384 2.35473 3.22393 2.81026 2.84219C3.48247 2.28715 4.33261 1.94025 5.26184 1.92042C6.2998 1.9006 7.2488 2.27724 7.96055 2.91157C8.76127 3.61529 9.27531 4.63618 9.30496 5.79582Z" stroke="#2ED573" stroke-width="1.5" stroke-miterlimit="10" stroke-linecap="round" stroke-linejoin="round"/>
        <path d="M3.80865 5.91463L4.80708 6.86614L6.87313 4.86401" stroke="#2ED573" stroke-width="1.5" stroke-linecap="round" stroke-linejoin="round"/>
    </g>
    <defs>
        <clipPath id="clip0_2683_28743">
            <rect width="23.7249" height="23.7876" fill="white" transform="translate(0.408081 0.929199)"/>
        </clipPath>
    </defs>
</svg>
