<svg width="12" height="12" viewBox="0 0 12 12" fill="none" xmlns="http://www.w3.org/2000/svg">
<path d="M11 3.25H8M3 3.25H1M11 8.75H9M4 8.75H1M5 5C5.22981 5 5.45738 4.95474 5.6697 4.86679C5.88202 4.77884 6.07493 4.64994 6.23744 4.48744C6.39994 4.32493 6.52884 4.13202 6.61679 3.9197C6.70474 3.70738 6.75 3.47981 6.75 3.25C6.75 3.02019 6.70474 2.79262 6.61679 2.5803C6.52884 2.36798 6.39994 2.17507 6.23744 2.01256C6.07493 1.85006 5.88202 1.72116 5.6697 1.63321C5.45738 1.54527 5.22981 1.5 5 1.5C4.53587 1.5 4.09075 1.68437 3.76256 2.01256C3.43437 2.34075 3.25 2.78587 3.25 3.25C3.25 3.71413 3.43437 4.15925 3.76256 4.48744C4.09075 4.81563 4.53587 5 5 5ZM7 10.5C7.46413 10.5 7.90925 10.3156 8.23744 9.98744C8.56563 9.65925 8.75 9.21413 8.75 8.75C8.75 8.28587 8.56563 7.84075 8.23744 7.51256C7.90925 7.18437 7.46413 7 7 7C6.53587 7 6.09075 7.18437 5.76256 7.51256C5.43437 7.84075 5.25 8.28587 5.25 8.75C5.25 9.21413 5.43437 9.65925 5.76256 9.98744C6.09075 10.3156 6.53587 10.5 7 10.5Z" stroke="#28232C" stroke-miterlimit="10" stroke-linecap="round" stroke-linejoin="round"/>
</svg>
