<svg width="240" height="205" viewBox="0 0 240 205" fill="none" xmlns="http://www.w3.org/2000/svg">
<path opacity="0.1" d="M217.083 137.017C211.62 109.471 179.617 87.4555 173.375 58.7507C162.031 22.2304 124.638 16.4565 100.339 32.3172C61.8377 57.4488 102.911 63.6854 27.422 123.145C8.78218 137.827 14.7217 202.636 73.3615 187.762C104.919 179.758 114.512 178.635 128.707 177.317C164.485 173.995 226.252 183.256 217.083 137.017Z" fill="#8554EA"/>
<path d="M185.349 159.356L118.991 194.404L52.7324 159.356V106.432H185.349V159.356Z" fill="white"/>
<path d="M118.991 194.941C118.904 194.941 118.817 194.92 118.74 194.879L52.4837 159.831C52.3975 159.786 52.3254 159.718 52.2749 159.634C52.2245 159.551 52.1976 159.456 52.1973 159.358V106.432C52.1973 106.29 52.2539 106.153 52.3547 106.052C52.4555 105.951 52.5922 105.895 52.7348 105.895H185.35C185.493 105.895 185.629 105.951 185.73 106.052C185.831 106.153 185.888 106.29 185.888 106.432V159.356C185.887 159.454 185.86 159.549 185.81 159.633C185.76 159.716 185.687 159.784 185.601 159.829L119.243 194.877C119.165 194.919 119.079 194.941 118.991 194.941ZM53.2706 159.033L118.991 193.796L184.813 159.033V106.97H53.2706V159.033Z" fill="#3A373D"/>
<path d="M185.349 95.0752L118.99 60.0278L148.809 45.6548L215.168 80.7026L185.349 95.0752Z" fill="white"/>
<path d="M185.349 95.6129C185.262 95.6129 185.175 95.5917 185.098 95.551L118.739 60.5032C118.651 60.4567 118.578 60.3867 118.528 60.301C118.477 60.2153 118.451 60.1173 118.453 60.0179C118.455 59.9184 118.484 59.8214 118.538 59.7377C118.592 59.6539 118.667 59.5866 118.757 59.5434L148.576 45.1703C148.652 45.1336 148.735 45.1152 148.819 45.1168C148.904 45.1184 148.986 45.1398 149.061 45.1793L215.419 80.2271C215.507 80.2736 215.581 80.3436 215.631 80.4292C215.682 80.5149 215.707 80.6128 215.706 80.7123C215.704 80.8117 215.674 80.9087 215.621 80.9924C215.567 81.0761 215.491 81.1433 215.402 81.1866L185.583 95.5596C185.51 95.5948 185.43 95.613 185.349 95.6129ZM120.183 60.0491L185.36 94.4725L213.976 80.68L148.798 46.2574L120.183 60.0491Z" fill="#3A373D"/>
<path d="M52.7311 95.0752L119.09 60.0278L89.2707 45.6548L22.9121 80.7026L52.7311 95.0752Z" fill="white"/>
<path d="M52.7317 95.6129C52.6509 95.6129 52.5711 95.5947 52.4982 95.5596L22.6809 81.1866C22.5914 81.1433 22.5156 81.0761 22.4619 80.9924C22.4082 80.9087 22.3789 80.8117 22.377 80.7123C22.3752 80.6128 22.401 80.5149 22.4515 80.4292C22.5021 80.3436 22.5754 80.2736 22.6633 80.2271L89.0219 45.1793C89.0963 45.1398 89.1789 45.1184 89.2632 45.1168C89.3474 45.1152 89.4308 45.1336 89.5066 45.1703L119.326 59.5434C119.415 59.5866 119.491 59.6539 119.545 59.7377C119.598 59.8214 119.628 59.9184 119.629 60.0179C119.631 60.1173 119.605 60.2153 119.555 60.301C119.504 60.3867 119.431 60.4567 119.343 60.5032L52.9846 95.551C52.9067 95.592 52.8198 95.6133 52.7317 95.6129ZM24.1052 80.6808L52.7206 94.4733L117.898 60.0499L89.2825 46.2574L24.1052 80.6808Z" fill="#3A373D"/>
<path d="M52.7326 95.0757L119.091 130.123L84.9719 148.796L18.6133 113.749L52.7326 95.0757Z" fill="white"/>
<path d="M84.9716 149.334C84.884 149.334 84.7978 149.312 84.7205 149.271L18.3619 114.224C18.2762 114.178 18.2044 114.11 18.1541 114.028C18.1038 113.945 18.0769 113.85 18.0762 113.753C18.0755 113.656 18.101 113.56 18.1501 113.477C18.1992 113.393 18.27 113.324 18.355 113.278L52.4743 94.6042C52.5523 94.5614 52.6396 94.5387 52.7285 94.5381C52.8174 94.5375 52.905 94.559 52.9835 94.6007L119.342 129.649C119.428 129.694 119.5 129.762 119.55 129.845C119.6 129.928 119.627 130.023 119.628 130.12C119.628 130.216 119.603 130.312 119.554 130.395C119.505 130.479 119.434 130.548 119.349 130.595L85.2296 149.268C85.1505 149.311 85.0618 149.334 84.9716 149.334ZM19.7483 113.74L84.9669 148.186L117.956 130.131L52.7371 95.6857L19.7483 113.74Z" fill="#3A373D"/>
<path d="M185.349 95.0757L118.99 130.123L153.11 148.796L219.468 113.749L185.349 95.0757Z" fill="white"/>
<path d="M153.111 149.334C153.021 149.334 152.932 149.311 152.853 149.268L118.734 130.595C118.649 130.548 118.578 130.479 118.529 130.395C118.48 130.312 118.454 130.216 118.455 130.12C118.456 130.023 118.483 129.928 118.533 129.845C118.583 129.762 118.655 129.694 118.741 129.649L185.099 94.6007C185.178 94.559 185.265 94.5375 185.354 94.5381C185.443 94.5387 185.531 94.5614 185.609 94.6042L219.728 113.278C219.813 113.324 219.884 113.393 219.933 113.477C219.982 113.56 220.007 113.656 220.007 113.753C220.006 113.85 219.979 113.945 219.929 114.028C219.878 114.11 219.807 114.178 219.721 114.224L153.362 149.271C153.285 149.312 153.199 149.334 153.111 149.334ZM120.128 130.131L153.116 148.186L218.335 113.74L185.346 95.6857L120.128 130.131Z" fill="#3A373D"/>
<path d="M119.091 60.0278L52.7324 95.0752L118.991 130.123L185.349 95.0752L119.091 60.0278Z" fill="#3A373D"/>
<path d="M119.528 130.123H118.453V194.404H119.528V130.123Z" fill="#3A373D"/>
<path d="M81.8109 91.8936C81.7219 91.8937 81.6351 91.8659 81.5628 91.8141C81.4697 91.7481 81.4067 91.6479 81.3875 91.5355C81.3683 91.4231 81.3945 91.3077 81.4604 91.2146C81.54 91.1024 89.312 79.8664 80.6356 69.623C79.1 67.8006 77.1844 66.336 75.023 65.332C72.8617 64.3279 70.5069 63.8087 68.1238 63.8107H68.0068C68.8308 66.673 68.6837 69.2179 67.517 71.1703C67.0199 72.0525 66.2863 72.7784 65.3989 73.2662C64.5114 73.7539 63.5054 73.9842 62.4942 73.9311C61.6571 73.8625 60.8582 73.5513 60.1953 73.0356C59.5324 72.5199 59.0342 71.822 58.7619 71.0275C57.8077 68.5385 58.8049 66.1251 61.4333 64.5697C63.0984 63.6515 64.9485 63.1193 66.847 63.0125C66.2294 61.3751 65.4263 59.8138 64.4534 58.3591C61.3206 53.5746 55.6111 50.2624 48.7881 49.2721C43.0059 48.4331 37.4645 49.4213 34.6688 51.7891C34.5818 51.8627 34.469 51.8988 34.3553 51.8893C34.2416 51.8798 34.1364 51.8256 34.0627 51.7385C33.989 51.6514 33.9529 51.5387 33.9624 51.425C33.9719 51.3113 34.0261 51.2061 34.1132 51.1324C37.0882 48.6128 42.8967 47.5476 48.9116 48.4232C55.9783 49.4492 61.9051 52.8994 65.1733 57.89C66.2329 59.4727 67.0948 61.1791 67.7398 62.9712C70.3106 62.9095 72.8625 63.4253 75.2076 64.4806C77.5526 65.536 79.631 67.104 81.2897 69.0691C90.4034 79.8282 82.2431 91.5965 82.1597 91.7143C82.1199 91.7697 82.0676 91.8149 82.0069 91.846C81.9463 91.8772 81.8791 91.8935 81.8109 91.8936ZM67.1261 63.8421C65.2855 63.9205 63.4878 64.423 61.8732 65.3102C59.6044 66.6528 58.7641 68.6249 59.567 70.72C59.7845 71.362 60.1844 71.9266 60.7178 72.3449C61.2512 72.7631 61.895 73.0168 62.5703 73.0749C63.4206 73.113 64.2648 72.9138 65.0083 72.4996C65.7519 72.0854 66.3656 71.4725 66.7808 70.7295C67.8516 68.9362 67.9496 66.5526 67.1248 63.8421H67.1261Z" fill="#292A2E"/>
<path d="M27.2471 58.7221C26.5164 58.9417 25.7287 58.8673 25.052 58.5148C24.3753 58.1623 23.8628 57.5595 23.6239 56.8349C23.3849 56.1102 23.4382 55.3209 23.7725 54.635C24.1068 53.9491 24.6957 53.4208 25.4137 53.1625C26.1317 52.9043 26.9222 52.9365 27.6168 53.2524C28.3114 53.5683 28.8552 54.1428 29.1326 54.8537C29.4099 55.5646 29.3987 56.3556 29.1015 57.0584C28.8043 57.7612 28.2445 58.3202 27.5413 58.6164C27.4452 58.6569 27.347 58.6923 27.2471 58.7221ZM25.8173 53.9436C25.7476 53.9645 25.6791 53.9892 25.6121 54.0176C25.1173 54.2262 24.7236 54.6197 24.5146 55.1144C24.3057 55.6091 24.2982 56.1658 24.4936 56.6659C24.6891 57.1661 25.0721 57.5702 25.5611 57.7921C26.05 58.014 26.6063 58.0363 27.1115 57.8541C27.6166 57.672 28.0307 57.2998 28.2655 56.8169C28.5003 56.334 28.5373 55.7785 28.3686 55.2687C28.1998 54.7589 27.8388 54.3351 27.3622 54.0876C26.8857 53.8401 26.3313 53.7884 25.8173 53.9436Z" fill="#292A2E"/>
<path d="M27.2414 51.9837C26.5501 52.1901 25.8069 52.1336 25.1547 51.8252C24.5025 51.5168 23.9873 50.9782 23.7082 50.313C23.4844 49.7796 23.4238 49.1919 23.5341 48.6241C23.6443 48.0563 23.9205 47.534 24.3276 47.1232C24.7348 46.7124 25.2546 46.4315 25.8213 46.3161C26.3881 46.2007 26.9763 46.256 27.5117 46.4749C28.047 46.6939 28.5054 47.0667 28.8289 47.5462C29.1523 48.0256 29.3264 48.5903 29.3289 49.1687C29.3315 49.747 29.1624 50.3132 28.8432 50.7955C28.524 51.2778 28.0689 51.6546 27.5355 51.8783C27.4394 51.9185 27.3412 51.9537 27.2414 51.9837ZM25.8132 47.2047C25.7427 47.2258 25.6734 47.2507 25.6055 47.2791C25.101 47.491 24.7013 47.8945 24.4943 48.401C24.2872 48.9075 24.2897 49.4755 24.5012 49.9801C24.6555 50.348 24.913 50.6633 25.2427 50.8878C25.5724 51.1124 25.9601 51.2366 26.3589 51.2455C26.7577 51.2544 27.1505 51.1475 27.4899 50.9378C27.8292 50.7281 28.1005 50.4246 28.271 50.0639C28.4414 49.7033 28.5037 49.301 28.4504 48.9057C28.397 48.5103 28.2302 48.139 27.9702 47.8364C27.7102 47.5339 27.3681 47.3132 26.9853 47.201C26.6025 47.0888 26.1954 47.0904 25.8132 47.2047Z" fill="#292A2E"/>
<path d="M26.4079 55.0249C28.5197 55.0249 30.2317 53.8815 30.2317 52.471C30.2317 51.0604 28.5197 49.917 26.4079 49.917C24.296 49.917 22.584 51.0604 22.584 52.471C22.584 53.8815 24.296 55.0249 26.4079 55.0249Z" fill="white"/>
<path d="M28.1004 55.2127C27.5521 55.3748 26.9833 55.4565 26.4116 55.4553C24.0258 55.4553 22.1543 54.148 22.1543 52.4747C22.1543 50.8014 24.0202 49.4894 26.4052 49.4868C27.445 49.4669 28.468 49.7508 29.3488 50.3039C29.7443 50.51 30.0759 50.8205 30.3074 51.2017C30.5389 51.583 30.6615 52.0204 30.6619 52.4664C30.6623 52.9125 30.5405 53.3501 30.3096 53.7317C30.0788 54.1134 29.7478 54.4245 29.3526 54.6313C28.9663 54.886 28.5443 55.082 28.1004 55.2127ZM24.9775 50.5516C23.8284 50.8956 23.0139 51.6383 23.0144 52.4726C23.0144 53.6238 24.5698 54.5952 26.4116 54.5935C27.2817 54.6118 28.1382 54.3763 28.8766 53.9157C29.1535 53.7882 29.3881 53.5839 29.5524 53.3271C29.7167 53.0702 29.8039 52.7717 29.8036 52.4668C29.8033 52.1619 29.7156 51.8635 29.5508 51.6069C29.3861 51.3504 29.1512 51.1465 28.874 51.0195C28.1351 50.5599 27.2781 50.3258 26.4082 50.346C25.9238 50.3448 25.4419 50.414 24.9775 50.5516Z" fill="#292A2E"/>
<path d="M27.3454 54.947L27.2551 49.9801L26.02 49.9302L25.9336 55.005L27.3454 54.947Z" fill="#292A2E"/>
<path d="M21.3342 53.5517C21.5523 53.5517 21.729 53.375 21.729 53.157C21.729 52.939 21.5523 52.7622 21.3342 52.7622C21.1162 52.7622 20.9395 52.939 20.9395 53.157C20.9395 53.375 21.1162 53.5517 21.3342 53.5517Z" fill="#292A2E"/>
<path d="M21.6428 51.4394C21.8608 51.4394 22.0376 51.2627 22.0376 51.0447C22.0376 50.8266 21.8608 50.6499 21.6428 50.6499C21.4248 50.6499 21.248 50.8266 21.248 51.0447C21.248 51.2627 21.4248 51.4394 21.6428 51.4394Z" fill="#292A2E"/>
<path d="M149.381 67.0935C149.289 67.0935 149.2 67.0639 149.126 67.0092C149.052 66.9545 148.997 66.8775 148.97 66.7895C147.544 61.4629 147.163 55.9105 147.849 50.4391C148.961 42.4405 153.372 31.9429 168.074 27.3463C170.142 26.6812 172.264 26.1948 174.416 25.8923C175.109 21.5658 177.744 16.8724 183.638 13.6342C197.64 5.94004 207.099 12.8434 207.193 12.9139C207.284 12.9823 207.344 13.0842 207.361 13.1971C207.377 13.31 207.347 13.4247 207.279 13.516C207.21 13.6072 207.109 13.6675 206.996 13.6836C206.883 13.6998 206.768 13.6704 206.677 13.602C206.587 13.5349 197.548 6.97212 184.052 14.3885C178.545 17.4146 176.024 21.758 175.308 25.79C181.792 25.1514 184.897 27.3145 186.291 28.9482C187.153 29.9306 187.707 31.145 187.884 32.4402C188.061 33.7353 187.853 35.0539 187.286 36.2317C186.838 37.1836 186.112 37.9772 185.203 38.5076C184.294 39.0381 183.246 39.2805 182.197 39.2028C178.575 38.9903 175.578 35.944 174.563 31.4415C174.228 29.9174 174.138 28.3494 174.299 26.7971C172.275 27.0879 170.279 27.5469 168.331 28.1694C156.873 31.752 150.27 39.2858 148.701 50.56C148.029 55.9072 148.399 61.3339 149.792 66.54C149.812 66.6043 149.816 66.6724 149.805 66.7387C149.794 66.8049 149.767 66.8676 149.727 66.9217C149.687 66.9758 149.635 67.0197 149.575 67.05C149.515 67.0803 149.448 67.0961 149.381 67.0961V67.0935ZM175.175 26.6896C174.996 28.2124 175.073 29.7543 175.402 31.2519C176.331 35.3707 179.018 38.1543 182.247 38.344C183.127 38.407 184.006 38.2026 184.768 37.7575C185.53 37.3124 186.139 36.6474 186.516 35.8498C187.008 34.8228 187.187 33.6738 187.03 32.546C186.873 31.4182 186.389 30.3614 185.636 29.5072C183.625 27.1476 179.955 26.1947 175.175 26.6896Z" fill="#292A2E"/>
<path d="M217.209 17.2603C216.63 17.2591 216.063 17.0941 215.574 16.7844C215.084 16.4747 214.692 16.0329 214.443 15.51C214.194 14.9872 214.098 14.4045 214.166 13.8293C214.234 13.254 214.463 12.7097 214.827 12.2591C215.191 11.8086 215.674 11.4701 216.223 11.2827C216.771 11.0954 217.36 11.0669 217.924 11.2005C218.488 11.334 219.002 11.6242 219.408 12.0376C219.813 12.451 220.094 12.9706 220.217 13.5366C220.313 13.9853 220.308 14.4498 220.202 14.8962C220.096 15.3426 219.891 15.7596 219.602 16.1166C219.314 16.4736 218.949 16.7616 218.535 16.9595C218.121 17.1573 217.668 17.2601 217.209 17.2603ZM217.216 11.9777C216.758 11.9777 216.312 12.1196 215.939 12.3838C215.566 12.6479 215.283 13.0214 215.131 13.4527C214.979 13.884 214.964 14.3519 215.089 14.792C215.214 15.232 215.472 15.6225 215.828 15.9096C216.184 16.1967 216.62 16.3663 217.077 16.395C217.533 16.4237 217.988 16.3101 218.377 16.0699C218.766 15.8297 219.071 15.4747 219.25 15.0538C219.429 14.6329 219.473 14.1668 219.376 13.7198C219.272 13.2253 218.999 12.782 218.606 12.4646C218.212 12.1473 217.721 11.9754 217.216 11.9777Z" fill="#292A2E"/>
<path d="M215.914 24.279C215.125 24.2789 214.367 23.9767 213.795 23.4345C213.223 22.8923 212.881 22.1514 212.838 21.3644C212.796 20.5774 213.057 19.804 213.568 19.2037C214.078 18.6033 214.8 18.2215 215.583 18.1369C216.367 18.0524 217.153 18.2714 217.78 18.7491C218.407 19.2267 218.827 19.9265 218.954 20.7045C219.08 21.4824 218.904 22.2793 218.461 22.931C218.017 23.5828 217.341 24.0398 216.571 24.208C216.355 24.2552 216.135 24.2789 215.914 24.279ZM215.924 18.996C215.765 18.9961 215.607 19.0132 215.451 19.0472C214.902 19.1678 214.42 19.4944 214.104 19.9597C213.788 20.4251 213.663 20.9938 213.753 21.5489C213.844 22.1039 214.144 22.6031 214.592 22.9437C215.039 23.2843 215.6 23.4404 216.159 23.3799C216.719 23.3194 217.233 23.0469 217.598 22.6185C217.962 22.1901 218.148 21.6383 218.118 21.0767C218.088 20.5151 217.844 19.9863 217.436 19.5993C217.028 19.2123 216.487 18.9964 215.924 18.996Z" fill="#292A2E"/>
<path d="M220.533 18.5165C220.804 17.0477 219.241 15.5279 217.042 15.1221C214.842 14.7163 212.84 15.5781 212.569 17.047C212.298 18.5158 213.861 20.0355 216.06 20.4413C218.259 20.8471 220.262 19.9854 220.533 18.5165Z" fill="white"/>
<path d="M217.143 20.9721C216.753 20.9715 216.365 20.9355 215.982 20.8646C214.9 20.6852 213.894 20.1941 213.088 19.4515C212.735 19.1504 212.464 18.765 212.299 18.3312C212.134 17.8973 212.081 17.429 212.146 16.9694C212.25 16.5172 212.466 16.0985 212.775 15.752C213.084 15.4055 213.475 15.1424 213.912 14.9869C214.935 14.6006 216.044 14.5012 217.119 14.6997C218.195 14.8981 219.195 15.3868 220.013 16.1128C220.366 16.4139 220.637 16.7993 220.802 17.2331C220.967 17.667 221.019 18.1353 220.955 18.5949C220.851 19.0471 220.634 19.4658 220.326 19.8123C220.017 20.1588 219.626 20.4219 219.189 20.5774C218.54 20.8457 217.844 20.98 217.143 20.9721ZM215.955 15.4514C215.371 15.4439 214.792 15.5547 214.252 15.7769C213.946 15.8792 213.671 16.0561 213.451 16.2915C213.231 16.527 213.073 16.8137 212.992 17.1255C212.956 17.4458 213.001 17.7699 213.123 18.0683C213.244 18.3668 213.438 18.6303 213.687 18.8349C214.383 19.442 215.229 19.8508 216.137 20.0184C217.045 20.186 217.981 20.1062 218.848 19.7874C219.153 19.6851 219.429 19.5082 219.649 19.2728C219.869 19.0373 220.026 18.7506 220.108 18.4388C220.143 18.1185 220.098 17.7943 219.977 17.4958C219.855 17.1973 219.661 16.9339 219.412 16.7294C218.727 16.1049 217.876 15.6935 216.961 15.5455C216.63 15.4839 216.294 15.4523 215.957 15.4514H215.955Z" fill="#292A2E"/>
<path d="M216.054 15.0234L215.189 20.2122L216.465 20.5029L217.535 15.2354L216.054 15.0234Z" fill="#292A2E"/>
<path d="M221.238 20.6055C221.469 20.6055 221.656 20.4184 221.656 20.1875C221.656 19.9567 221.469 19.7695 221.238 19.7695C221.007 19.7695 220.82 19.9567 220.82 20.1875C220.82 20.4184 221.007 20.6055 221.238 20.6055Z" fill="#292A2E"/>
<path d="M221.967 18.4659C222.198 18.4659 222.385 18.2787 222.385 18.0479C222.385 17.817 222.198 17.6299 221.967 17.6299C221.736 17.6299 221.549 17.817 221.549 18.0479C221.549 18.2787 221.736 18.4659 221.967 18.4659Z" fill="#292A2E"/>
</svg>
